<mxfile host="app.diagrams.net" modified="2024-04-07T19:46:21.231Z" agent="Mozilla/5.0 (Windows NT 10.0; Win64; x64) AppleWebKit/537.36 (KHTML, like Gecko) Chrome/109.0.0.0 Safari/537.36" version="24.2.2" etag="fzesPzwl0eKllE1jE4g3" type="github">
  <diagram name="Page-1" id="HCNnMALX1GZLuP7G7ihf">
    <mxGraphModel>
      <root>
        <mxCell id="0" />
        <mxCell id="1" parent="0" />
      </root>
    </mxGraphModel>
  </diagram>
</mxfile>
